HIERARCHY
ROOT Hips
{
	OFFSET	0.00	0.00	0.00
	CHANNELS 6 Xposition Yposition Zposition Zrotation Xrotation Yrotation
	JOINT LeftUpLeg
	{
		OFFSET	 0.126116	-0.014019	-0.065224
		CHANNELS 3 Zrotation Xrotation Yrotation
		JOINT LeftLeg
		{
			OFFSET	 0.000000	 0.000000	 0.569914
			CHANNELS 3 Zrotation Xrotation Yrotation
			JOINT LeftFoot
			{
				OFFSET	 0.000000	 0.000000	 0.544423
				CHANNELS 3 Zrotation Xrotation Yrotation
				JOINT LeftToeBase
				{
					OFFSET	 0.000000	 0.000000	 0.207117
					CHANNELS 3 Zrotation Xrotation Yrotation
					End Site
					{
						OFFSET	 0.000000	 0.000000	 0.207117
					}
				}
			}
		}
	}
	JOINT RightUpLeg
	{
		OFFSET	-0.124023	-0.008373	-0.065224
		CHANNELS 3 Zrotation Xrotation Yrotation
		JOINT RightLeg
		{
			OFFSET	 0.000000	 0.000000	 0.570047
			CHANNELS 3 Zrotation Xrotation Yrotation
			JOINT RightFoot
			{
				OFFSET	 0.000000	 0.000000	 0.544354
				CHANNELS 3 Zrotation Xrotation Yrotation
				JOINT RightToeBase
				{
					OFFSET	 0.000000	 0.000000	 0.207540
					CHANNELS 3 Zrotation Xrotation Yrotation
					End Site
					{
						OFFSET	 0.000000	 0.000000	 0.207540
					}
				}
			}
		}
	}
	JOINT Spine
	{
		OFFSET	 0.000184	-0.007763	 0.117403
		CHANNELS 3 Zrotation Xrotation Yrotation
		JOINT Spine1
		{
			OFFSET	 0.000000	 0.000000	 0.137269
			CHANNELS 3 Zrotation Xrotation Yrotation
			JOINT Spine2
			{
				OFFSET	 0.000000	 0.000000	 0.156879
				CHANNELS 3 Zrotation Xrotation Yrotation
				JOINT LeftShoulder
				{
					OFFSET	 0.080501	-0.002496	 0.160144
					CHANNELS 3 Zrotation Xrotation Yrotation
					JOINT LeftArm
					{
						OFFSET	 0.000000	 0.000000	 0.164363
						CHANNELS 3 Zrotation Xrotation Yrotation
						JOINT LeftForeArm
						{
							OFFSET	 0.000000	 0.000000	 0.364576
							CHANNELS 3 Zrotation Xrotation Yrotation
							JOINT LeftHand
							{
								OFFSET	 0.000000	 0.000000	 0.360812
								CHANNELS 3 Zrotation Xrotation Yrotation
								JOINT LeftHandIndex1
								{
									OFFSET	 0.000000	 0.000000	 0.086006
									CHANNELS 3 Zrotation Xrotation Yrotation
									JOINT LeftHandIndex2
									{
										OFFSET	 0.000000	 0.000000	 0.047236
										CHANNELS 3 Zrotation Xrotation Yrotation
										JOINT LeftHandIndex3
										{
											OFFSET	-0.004284	-0.000551	 0.038166
											CHANNELS 3 Zrotation Xrotation Yrotation
											End Site
											{
												OFFSET	-0.004284	-0.000551	 0.038166
											}
										}
									}
								}
							}
						}
					}
				}
				JOINT Neck
				{
					OFFSET	 0.000000	 0.000000	 0.176489
					CHANNELS 3 Zrotation Xrotation Yrotation
					JOINT Head
					{
						OFFSET	 0.000000	-0.001747	 0.077940
						CHANNELS 3 Zrotation Xrotation Yrotation
						End Site
						{
							OFFSET	 0.000000	-0.001747	 0.077940
						}
					}
				}
				JOINT RightShoulder
				{
					OFFSET	-0.080363	 0.000306	 0.159706
					CHANNELS 3 Zrotation Xrotation Yrotation
					JOINT RightArm
					{
						OFFSET	 0.000000	 0.000000	 0.164196
						CHANNELS 3 Zrotation Xrotation Yrotation
						JOINT RightForeArm
						{
							OFFSET	 0.000000	 0.000000	 0.365611
							CHANNELS 3 Zrotation Xrotation Yrotation
							JOINT RightHand
							{
								OFFSET	 0.000000	 0.000000	 0.360648
								CHANNELS 3 Zrotation Xrotation Yrotation
								JOINT RightHandIndex1
								{
									OFFSET	 0.000000	 0.000000	 0.069977
									CHANNELS 3 Zrotation Xrotation Yrotation
									JOINT RightHandIndex2
									{
										OFFSET	 0.000000	 0.000000	 0.052305
										CHANNELS 3 Zrotation Xrotation Yrotation
										JOINT RightHandIndex3
										{
											OFFSET	 0.009002	-0.000782	 0.042196
											CHANNELS 3 Zrotation Xrotation Yrotation
											End Site
											{
												OFFSET	 0.009002	-0.000782	 0.042196
											}
										}
									}
								}
							}
						}
					}
				}
			}
		}
	}
}
MOTION
Frames:    12
Frame Time: 0.03333334
 0.000032	 0.026471	 1.222009	-0.005201	 0.005035	 0.116596	-6.450303	-13.373430	 179.394500	 0.755809	-36.233150	-2.416044	-24.581230	 83.309500	 18.750790	-2.385833	 28.452760	 0.000004	 6.303532	-13.814320	-179.545700	-0.753832	-36.268110	 2.374647	 23.244780	 83.034290	-17.571210	 2.384658	 28.388730	 0.000004	-2.907404	 3.457854	 0.288110	-1.450219	 1.099464	-0.670209	 4.387722	-1.317320	 0.801069	-91.776170	 78.527450	 180.000000	 59.978730	 41.833810	-44.509530	-7.750984	 4.358503	-10.962010	-28.493630	 3.478832	-4.256598	-2.635965	 4.993658	 6.788941	-5.165319	 0.784187	 3.516649	-5.225038	 0.466231	 0.424329	-0.000002	-3.783157	-0.089647	 4.349149	 6.396784	-0.243162	 89.782160	 78.203900	 179.999900	 9.242340	 13.413520	 88.909480	-33.798370	-4.411602	 13.222310	 3.848401	 2.949799	-6.125877	 6.112037	 4.509576	-0.364401	 4.968462	 1.518543	-9.347576	 5.168945	 0.703820	 2.021906
 0.000048	 0.026698	 1.222338	-0.004796	 0.004503	 0.123142	-6.451434	-13.325910	 179.385100	 0.761142	-36.130910	-2.407010	-24.352810	 83.260290	 18.520510	-2.385833	 28.452760	 0.000004	 6.301759	-13.773880	-179.547000	-0.759501	-36.157600	 2.365050	 23.005250	 82.970860	-17.330600	 2.384658	 28.388730	 0.000004	-3.152232	 3.402992	 0.303820	-1.573401	 1.291260	-0.715172	 4.760280	-1.546888	 0.879589	-91.776210	 78.527470	-180.000000	 60.023350	 41.835430	-44.391410	-7.743046	 4.398886	-11.065260	-28.492500	 3.478992	-4.256427	-2.635965	 4.993658	 6.788941	-5.165319	 0.784187	 3.516649	-5.225038	 0.466231	 0.424329	-0.000002	-3.783157	-0.089647	 4.713204	 6.248789	-0.257428	 89.782110	 78.203890	 180.000000	 9.175623	 13.544880	 88.882060	-33.892800	-4.450976	 13.264550	 3.860102	 2.868305	-6.168146	 6.112037	 4.509576	-0.364401	 4.968462	 1.518543	-9.347576	 5.168945	 0.703820	 2.021906
 0.000060	 0.026924	 1.222665	-0.004267	 0.003855	 0.128677	-6.452423	-13.278250	 179.376600	 0.766469	-36.028330	-2.397967	-24.127000	 83.210750	 18.292840	-2.385833	 28.452760	 0.000004	 6.300065	-13.733440	-179.547500	-0.765113	-36.047640	 2.355530	 22.770220	 82.907620	-17.094430	 2.384658	 28.388730	 0.000004	-3.374180	 3.344616	 0.317170	-1.685529	 1.495696	-0.752720	 5.099374	-1.792996	 0.954399	-91.776120	 78.527450	 179.999900	 60.092140	 41.835030	-44.293030	-7.735398	 4.437727	-11.164710	-28.495520	 3.478612	-4.256888	-2.635965	 4.993658	 6.788941	-5.165319	 0.784187	 3.516649	-5.225038	 0.466231	 0.424329	-0.000002	-3.783157	-0.089647	 5.042695	 6.093918	-0.268607	 89.782110	 78.203920	 180.000000	 9.110253	 13.693090	 88.851080	-33.993300	-4.495835	 13.317270	 3.883383	 2.791843	-6.210507	 6.112037	 4.509576	-0.364401	 4.968462	 1.518543	-9.347576	 5.168945	 0.703820	 2.021906
 0.000075	 0.027175	 1.223028	-0.003804	 0.003299	 0.134733	-6.453363	-13.225150	 179.367300	 0.772387	-35.913680	-2.387889	-23.878260	 83.155220	 18.042010	-2.385833	 28.452760	 0.000004	 6.298344	-13.688520	-179.547900	-0.771346	-35.924730	 2.344920	 22.512180	 82.836720	-16.835130	 2.384658	 28.388730	 0.000004	-3.596508	 3.274707	 0.328396	-1.798386	 1.740033	-0.787190	 5.441138	-2.089014	 1.034478	-91.776180	 78.527430	 180.000000	 60.204200	 41.838260	-44.218780	-7.727467	 4.477602	-11.266650	-28.504170	 3.477396	-4.258275	-2.635965	 4.993658	 6.788941	-5.165319	 0.784187	 3.516649	-5.225038	 0.466231	 0.424329	-0.000002	-3.783157	-0.089647	 5.372307	 5.912694	-0.277662	 89.782160	 78.203900	 179.999900	 9.016032	 13.867850	 88.804770	-34.113820	-4.552167	 13.386600	 3.891778	 2.747145	-6.252651	 6.112037	 4.509576	-0.364401	 4.968462	 1.518543	-9.347576	 5.168945	 0.703820	 2.021906
 0.000096	 0.027420	 1.223382	-0.003377	 0.002804	 0.140204	-6.454134	-13.173450	 179.358700	 0.778139	-35.801670	-2.378070	-23.638830	 83.100790	 17.800540	-2.385833	 28.452760	 0.000004	 6.296811	-13.645200	-179.547900	-0.777378	-35.805070	 2.334624	 22.264610	 82.767140	-16.586340	 2.384658	 28.388730	 0.000004	-3.789423	 3.200770	 0.336045	-1.897026	 1.998392	-0.813125	 5.740043	-2.404324	 1.109618	-91.776190	 78.527470	 180.000000	 60.358830	 41.852870	-44.190850	-7.719713	 4.517083	-11.367710	-28.518730	 3.475511	-4.260658	-2.635965	 4.993658	 6.788941	-5.165319	 0.784187	 3.516649	-5.225038	 0.466231	 0.424329	-0.000002	-3.783157	-0.089647	 5.657802	 5.725699	-0.283177	 89.782190	 78.203870	 179.999900	 8.862801	 13.863490	 88.732190	-34.231920	-4.609476	 13.459420	 3.377182	 2.922951	-6.272349	 6.112037	 4.509576	-0.364401	 4.968462	 1.518543	-9.347576	 5.168945	 0.703820	 2.021906
 0.000129	 0.027624	 1.223634	-0.002972	 0.002360	 0.144418	-6.454840	-13.137070	 179.352400	 0.782201	-35.722150	-2.371117	-23.469120	 83.061690	 17.629350	-2.385833	 28.452760	 0.000004	 6.295677	-13.616530	-179.547900	-0.781666	-35.719600	 2.327286	 22.085560	 82.715140	-16.406510	 2.384658	 28.388730	 0.000004	-3.934413	 3.132594	 0.339984	-1.971906	 2.236732	-0.828861	 5.966882	-2.697286	 1.171223	-91.776120	 78.527470	 180.000000	 60.537690	 41.881900	-44.215910	-7.712236	 4.553305	-11.460590	-28.537260	 3.473048	-4.263665	-2.635965	 4.993658	 6.788941	-5.165319	 0.784187	 3.516649	-5.225038	 0.466231	 0.424329	-0.000002	-3.783157	-0.089647	 5.871861	 5.557381	-0.285255	 89.782040	 78.203870	-180.000000	 8.728765	 13.850510	 88.795040	-34.100720	-4.508391	 13.272510	 2.618747	 3.093593	-6.252167	 6.112037	 4.509576	-0.364401	 4.968462	 1.518543	-9.347576	 5.168945	 0.703820	 2.021906
 0.000181	 0.027833	 1.223823	-0.002820	 0.002230	 0.150347	-6.455887	-13.111630	 179.344900	 0.785120	-35.664920	-2.366121	-23.344900	 83.032690	 17.504040	-2.385833	 28.452760	 0.000004	 6.294674	-13.599990	-179.550000	-0.784864	-35.655590	 2.321801	 21.945730	 82.671800	-16.266400	 2.384658	 28.388730	 0.000004	-4.066309	 3.054099	 0.339380	-2.040844	 2.510580	-0.839726	 6.176349	-3.036367	 1.234159	-91.776080	 78.527430	 179.999900	 60.793310	 41.940070	-44.323530	-7.704898	 4.588572	-11.550980	-28.564150	 3.469441	-4.268025	-2.635965	 4.993658	 6.788941	-5.165319	 0.784187	 3.516649	-5.225038	 0.466231	 0.424329	-0.000002	-3.783157	-0.089647	 6.066262	 5.368835	-0.284703	 89.782160	 78.203900	 179.999900	 8.559304	 14.000910	 89.005610	-33.581240	-4.206025	 12.785670	 1.988716	 3.083999	-6.203805	 6.112037	 4.509576	-0.364401	 4.968462	 1.518543	-9.347576	 5.168945	 0.703820	 2.021906
 0.000226	 0.028042	 1.224099	-0.002953	 0.002447	 0.157264	-6.456738	-13.072640	 179.335100	 0.789484	-35.578910	-2.358626	-23.167730	 82.990310	 17.325400	-2.385833	 28.452760	 0.000004	 6.293618	-13.569850	-179.551800	-0.789465	-35.563210	 2.313903	 21.760820	 82.615300	-16.080830	 2.384658	 28.388730	 0.000004	-4.163027	 2.976938	 0.333995	-2.092381	 2.779330	-0.843901	 6.333576	-3.371710	 1.288193	-91.776180	 78.527430	 180.000000	 61.097630	 42.024000	-44.514660	-7.699453	 4.615559	-11.620120	-28.596270	 3.465158	-4.273175	-2.635965	 4.993658	 6.788941	-5.165319	 0.784187	 3.516649	-5.225038	 0.466231	 0.424329	-0.000002	-3.783157	-0.089647	 6.208538	 5.188881	-0.281612	 89.782170	 78.203890	 179.999900	 7.813401	 14.410780	 88.553210	-32.579360	-4.132329	 13.335720	 1.869053	 2.792417	-6.142019	 6.112037	 4.509576	-0.364401	 4.968462	 1.518543	-9.347576	 5.168945	 0.703820	 2.021906
 0.000238	 0.028267	 1.224630	-0.003052	 0.002649	 0.162692	-6.456676	-12.992250	 179.323900	 0.798204	-35.405970	-2.343606	-22.828870	 82.907070	 16.983720	-2.385833	 28.452760	 0.000004	 6.292302	-13.497530	-179.549600	-0.798251	-35.385530	 2.298762	 21.434950	 82.519710	-15.752820	 2.384658	 28.388730	 0.000004	-4.224934	 2.906981	 0.327147	-2.126500	 3.023127	-0.841704	 6.437636	-3.678215	 1.330219	-91.776150	 78.527450	 180.000000	 61.422460	 42.121480	-44.764310	-7.696425	 4.630503	-11.658430	-28.627300	 3.460994	-4.278202	-2.635965	 4.993658	 6.788941	-5.165319	 0.784187	 3.516649	-5.225038	 0.466231	 0.424329	-0.000002	-3.783157	-0.089647	 6.299008	 5.029892	-0.276958	 89.782070	 78.203870	-180.000000	 5.823082	 15.085380	 87.791010	-31.329180	-4.069580	 14.207470	 2.356884	 2.267621	-6.074362	 6.112037	 4.509576	-0.364401	 4.968462	 1.518543	-9.347576	 5.168945	 0.703820	 2.021906
 0.000226	 0.028565	 1.225525	-0.003151	 0.002896	 0.168023	-6.470239	-12.853020	 179.309500	 0.812983	-35.109470	-2.318002	-22.317590	 82.763020	 16.453830	-2.385833	 28.452760	 0.000004	 6.277531	-13.368910	-179.542000	-0.812954	-35.084760	 2.273281	 20.871330	 82.365010	-15.197450	 2.384658	 28.388730	 0.000004	-4.267997	 2.824587	 0.317043	-2.152041	 3.310357	-0.832672	 6.515460	-4.042210	 1.371304	-91.776210	 78.527430	-180.000000	 61.872840	 42.264670	-45.168270	-7.695856	 4.633135	-11.665220	-28.664680	 3.456039	-4.284228	-2.635965	 4.993658	 6.788941	-5.165319	 0.784187	 3.516649	-5.225038	 0.466231	 0.424329	-0.000002	-3.783157	-0.089647	 6.360985	 4.847677	-0.269544	 89.782160	 78.203850	 179.999900	 1.677629	 16.592290	 87.734150	-29.721600	-3.371027	 13.221720	 3.601202	 1.425146	-5.915211	 6.112037	 4.509576	-0.364401	 4.968462	 1.518543	-9.347576	 5.168945	 0.703820	 2.021906
 0.000220	 0.028857	 1.226454	-0.003232	 0.003156	 0.172196	-6.469243	-12.707300	 179.294600	 0.828282	-34.797960	-2.291304	-21.756220	 82.613110	 15.887160	-2.385833	 28.452760	 0.000004	 6.275571	-13.233490	-179.533700	-0.828064	-34.770760	 2.246886	 20.347680	 82.201680	-14.669800	 2.384658	 28.388730	 0.000004	-4.279759	 2.741268	 0.304914	-2.162208	 3.600953	-0.816851	 6.546299	-4.413689	 1.403256	-91.776150	 78.527470	 180.000000	 62.391170	 42.431270	-45.680860	-7.693505	 4.644483	-11.694250	-28.703070	 3.450938	-4.290492	-2.635965	 4.993658	 6.788941	-5.165319	 0.784187	 3.516649	-5.225038	 0.466231	 0.424329	-0.000002	-3.783157	-0.089647	 6.376350	 4.669003	-0.260227	 89.782190	 78.203900	 179.999900	-3.166443	 18.482710	 85.937440	-27.837340	-3.133728	 14.227990	 5.354194	 0.441336	-5.655230	 6.112037	 4.509576	-0.364401	 4.968462	 1.518543	-9.347576	 5.168945	 0.703820	 2.021906
 0.000216	 0.029102	 1.227267	-0.003230	 0.003165	 0.172038	-6.467276	-12.577520	 179.284900	 0.841721	-34.520170	-2.267665	-21.275660	 82.478840	 15.402310	-2.385833	 28.452760	 0.000004	 6.274874	-13.114770	-179.522900	-0.841081	-34.496460	 2.223984	 19.906690	 82.058360	-14.224920	 2.384658	 28.388730	 0.000004	-4.268082	 2.733728	 0.303238	-2.156927	 3.627158	-0.813003	 6.530327	-4.448276	 1.402146	-91.776210	 78.527470	-180.000000	 62.812540	 42.550090	-46.286100	-7.693202	 4.646251	-11.698780	-28.737570	 3.446296	-4.296048	-2.635965	 4.993658	 6.788941	-5.165319	 0.784187	 3.516649	-5.225038	 0.466231	 0.424329	-0.000002	-3.783157	-0.089647	 6.359367	 4.655377	-0.258775	 89.782100	 78.203920	 180.000000	-8.257531	 20.666240	 84.463710	-26.184480	-2.558344	 13.523640	 7.105226	-0.450812	-5.313103	 6.112037	 4.509576	-0.364401	 4.968462	 1.518543	-9.347576	 5.168945	 0.703820	 2.021906
